<?xml version="1.0" encoding="UTF-8"?>
<!DOCTYPE svg PUBLIC "-//W3C//DTD SVG 1.1//EN" "http://www.w3.org/Graphics/SVG/1.1/DTD/svg11.dtd">
<!-- Creator: CorelDRAW -->
<svg xmlns="http://www.w3.org/2000/svg" xml:space="preserve" width="2048px" height="2048px" style="shape-rendering:geometricPrecision; text-rendering:geometricPrecision; image-rendering:optimizeQuality; fill-rule:evenodd; clip-rule:evenodd"
viewBox="0 0 2048 2048"
 xmlns:xlink="http://www.w3.org/1999/xlink">
 <defs>
  <style type="text/css">
   <![CDATA[
    .fil2 {fill:none}
    .fil1 {fill:#0288D1}
    .fil0 {fill:#03A9F4}
    .fil11 {fill:#296424}
    .fil9 {fill:#33691E}
    .fil6 {fill:#38262C}
    .fil3 {fill:#3E2723}
    .fil12 {fill:#7EB45E}
    .fil10 {fill:#9CCC65}
    .fil8 {fill:#D47C0F}
    .fil7 {fill:#D49144}
    .fil15 {fill:#E34200}
    .fil13 {fill:#E65100}
    .fil16 {fill:#EF6713}
    .fil14 {fill:#F57F17}
    .fil5 {fill:#FF9100}
    .fil4 {fill:#FFAB40}
   ]]>
  </style>
   <clipPath id="id0">
    <path d="M1024 -0.0011811c565.541,0 1024,458.461 1024,1024 0,565.541 -458.461,1024 -1024,1024 -565.541,0 -1024,-458.461 -1024,-1024 0,-565.541 458.461,-1024 1024,-1024z"/>
   </clipPath>
 </defs>
 <g id="Layer_x0020_1">
  <metadata id="CorelCorpID_0Corel-Layer"/>
  <path class="fil0" d="M1024 -0.0011811c565.541,0 1024,458.461 1024,1024 0,565.541 -458.461,1024 -1024,1024 -565.541,0 -1024,-458.461 -1024,-1024 0,-565.541 458.461,-1024 1024,-1024z"/>
  <g style="clip-path:url(#id0)">
   <g id="_464381376">
    <g>
     <polygon id="_4668002081" class="fil1" points="1458.23,515.423 2594.11,1651.31 2614.27,1808.32 1478.39,672.441 "/>
     <polygon id="_466800232" class="fil1" points="1478.39,672.441 2614.27,1808.32 2619.18,1846.63 1483.3,710.749 "/>
     <polygon id="_466800736" class="fil1" points="1109.16,517.985 2245.04,1653.87 2246.2,1655.41 2247.2,1657.06 2248.05,1658.82 2248.73,1660.66 2249.23,1662.57 2249.53,1664.56 2249.63,1666.6 2249.63,1824.91 1113.75,689.026 1113.75,530.719 1113.65,528.677 1113.34,526.692 1112.85,524.774 1112.17,522.933 1111.32,521.182 1110.32,519.53 "/>
     <polygon id="_466800808" class="fil1" points="761.462,516.559 1897.34,1652.44 1898.64,1653.87 1899.8,1655.41 1900.8,1657.06 1901.65,1658.82 1902.33,1660.66 1902.82,1662.57 1903.13,1664.56 1903.23,1666.6 767.352,530.719 767.248,528.677 766.944,526.692 766.446,524.774 765.769,522.933 764.923,521.182 763.915,519.53 762.759,517.985 "/>
     <polygon id="_466800880" class="fil1" points="767.352,530.719 1903.23,1666.6 1903.23,1824.91 767.351,689.026 "/>
     <polygon id="_466800952" class="fil1" points="767.351,689.026 1903.23,1824.91 1903.23,1863.53 767.351,727.648 "/>
     <polygon id="_466801024" class="fil1" points="767.351,727.648 1903.23,1863.53 1903.23,2359.88 767.351,1224 "/>
     <polygon id="_466801096" class="fil1" points="1113.75,727.648 2249.63,1863.53 2249.63,2359.88 1113.75,1224 "/>
     <polygon id="_466801168" class="fil1" points="1113.75,1224 2249.63,2359.88 2249.63,2398.51 1113.75,1262.62 "/>
     <polygon id="_466801240" class="fil1" points="1113.75,1339.91 2249.63,2475.79 2249.63,2653.16 2249.53,2655.21 2249.23,2657.19 2248.73,2659.11 2248.05,2660.95 2247.2,2662.7 2246.2,2664.35 2245.04,2665.9 2243.74,2667.32 2242.32,2668.62 2240.77,2669.78 2239.12,2670.79 2237.37,2671.63 2235.53,2672.31 2233.61,2672.81 2231.63,2673.11 2229.58,2673.21 1093.7,1537.33 1095.74,1537.23 1097.73,1536.92 1099.65,1536.43 1101.49,1535.75 1103.24,1534.9 1104.89,1533.9 1106.44,1532.74 1107.86,1531.44 1109.16,1530.02 1110.32,1528.47 1111.32,1526.82 1112.17,1525.07 1112.85,1523.23 1113.34,1521.31 1113.65,1519.32 1113.75,1517.28 "/>
     <polygon id="_466801312" class="fil1" points="1453.4,504.761 2589.28,1640.64 2590.49,1642.16 2591.55,1643.79 2592.46,1645.52 2593.19,1647.36 2593.75,1649.29 2594.11,1651.31 1458.23,515.423 1457.87,513.41 1457.31,511.48 1456.58,509.641 1455.67,507.903 1454.61,506.273 "/>
     <polygon id="_466801384" class="fil1" points="1113.75,689.026 2249.63,1824.91 2249.63,1863.53 1113.75,727.648 "/>
     <polygon id="_466801456" class="fil1" points="1483.3,710.749 2619.18,1846.63 2682.38,2338.94 1546.5,1203.06 "/>
     <polygon id="_466801528" class="fil1" points="1546.5,1203.06 2682.38,2338.94 2687.3,2377.25 1551.41,1241.37 "/>
     <polygon id="_466801600" class="fil1" points="1113.75,1262.62 2249.63,2398.51 2249.63,2437.17 1113.75,1301.29 "/>
     <polygon id="_466801672" class="fil1" points="1113.75,1301.29 2249.63,2437.17 2249.63,2475.79 1113.75,1339.91 "/>
     <polygon id="_466801744" class="fil1" points="1436.24,1533.12 2572.12,2669 2441.28,2685.79 1305.4,1549.91 "/>
     <polygon id="_466801816" class="fil1" points="1305.4,1549.91 2441.28,2685.79 2439.24,2685.95 2437.23,2685.9 2435.26,2685.65 2433.35,2685.22 2431.51,2684.6 2429.74,2683.81 2428.06,2682.86 2426.48,2681.76 2425.01,2680.51 1289.13,1544.62 1290.6,1545.87 1292.18,1546.98 1293.86,1547.93 1295.63,1548.72 1297.47,1549.33 1299.38,1549.77 1301.35,1550.02 1303.36,1550.07 "/>
     <polygon id="_466801888" class="fil1" points="767.351,1224 1903.23,2359.88 1903.23,2398.51 767.351,1262.62 "/>
     <polygon id="_466801960" class="fil1" points="767.351,1339.91 1903.23,2475.79 1903.23,2653.16 1903.13,2655.21 1902.82,2657.19 1902.33,2659.11 1901.65,2660.95 1900.8,2662.7 1899.8,2664.35 1898.64,2665.9 1897.34,2667.32 1895.92,2668.62 1894.37,2669.78 1892.72,2670.79 1890.97,2671.63 1889.13,2672.31 1887.21,2672.81 1885.22,2673.11 1883.18,2673.21 747.299,1537.33 749.343,1537.23 751.328,1536.92 753.246,1536.43 755.086,1535.75 756.838,1534.9 758.492,1533.9 760.036,1532.74 761.462,1531.44 762.759,1530.02 763.915,1528.47 764.923,1526.82 765.769,1525.07 766.446,1523.23 766.944,1521.31 767.248,1519.32 767.352,1517.28 "/>
     <polygon id="_466802032" class="fil1" points="1551.41,1241.37 2687.3,2377.25 2692.22,2415.6 1556.34,1279.72 "/>
     <polygon id="_466802104" class="fil1" points="1556.34,1279.72 2692.22,2415.6 2697.14,2453.91 1561.25,1318.03 "/>
     <polygon id="_466802176" class="fil1" points="1561.25,1318.03 2697.14,2453.91 2719.72,2629.84 2719.88,2631.88 2719.83,2633.89 2719.58,2635.85 2719.14,2637.76 2718.52,2639.61 2717.74,2641.38 2716.78,2643.06 2715.68,2644.63 2714.43,2646.1 2713.05,2647.45 2711.53,2648.65 2709.9,2649.72 2708.17,2650.62 2706.33,2651.36 2704.4,2651.92 2702.38,2652.28 1566.5,1516.4 1568.51,1516.03 1570.45,1515.48 1572.28,1514.74 1574.02,1513.84 1575.65,1512.77 1577.16,1511.56 1578.55,1510.22 1579.8,1508.75 1580.9,1507.17 1581.85,1505.49 1582.64,1503.73 1583.26,1501.88 1583.7,1499.97 1583.95,1498 1584,1495.99 1583.84,1493.96 "/>
     <polygon id="_466802248" class="fil1" points="1566.5,1516.4 2702.38,2652.28 2572.12,2669 1436.24,1533.12 "/>
     <polygon id="_466802320" class="fil1" points="767.351,1262.62 1903.23,2398.51 1903.23,2437.17 767.351,1301.29 "/>
     <polygon id="_466802392" class="fil1" points="767.351,1301.29 1903.23,2437.17 1903.23,2475.79 767.351,1339.91 "/>
     <polygon id="_466802464" class="fil1" points="1093.7,1537.33 2229.58,2673.21 2097.96,2673.21 962.079,1537.33 "/>
     <polygon id="_466802536" class="fil1" points="962.079,1537.33 2097.96,2673.21 1966.33,2673.21 1964.29,2673.11 1962.31,2672.8 1960.39,2672.31 1958.55,2671.63 1956.8,2670.78 1955.14,2669.78 1953.6,2668.62 817.717,1532.74 819.262,1533.9 820.915,1534.9 822.667,1535.75 824.507,1536.43 826.425,1536.92 828.41,1537.23 830.454,1537.33 "/>
     <polygon id="_466802608" class="fil1" points="747.299,1537.33 1883.18,2673.21 1751.56,2673.21 615.677,1537.33 "/>
     <polygon id="_466802680" class="fil1" points="615.677,1537.33 1751.56,2673.21 1619.93,2673.21 1617.89,2673.11 1615.9,2672.81 1613.99,2672.31 1612.15,2671.63 1610.39,2670.79 1608.74,2669.78 1607.2,2668.62 471.315,1532.74 472.859,1533.9 474.513,1534.9 476.265,1535.75 478.105,1536.43 480.023,1536.92 482.008,1537.23 484.05,1537.33 "/>
    </g>
    <path id="_464378520" class="fil1" d="M1458.23 515.423l20.1543 157.018 4.91693 38.3079 63.1949 492.313 4.91693 38.3079 4.92284 38.3481 4.91693 38.3079 22.5839 175.929c1.40433,10.9394 -6.39686,21.0378 -17.3362,22.441l-130.262 16.7209 -130.844 16.7953c-10.9406,1.40315 -21.0378,-6.39686 -22.4421,-17.3362l-22.5827 -175.928 -4.91693 -38.3079 -4.92284 -38.3481 -4.91693 -38.3079 -63.1949 -492.313 -4.91693 -38.3079 -20.1555 -157.017c-1.40433,-10.9394 6.39567,-21.0378 17.3362,-22.4421l131.104 -16.8295 130.002 -16.6866c10.9394,-1.40433 21.0378,6.39686 22.4421,17.3351zm-627.778 -4.75394l131.626 0 131.622 0c11.0291,0 20.0516,9.02245 20.0516,20.0504l0 158.307 0 38.6221 0 496.353 0 38.6233 0 38.6611 0 38.6221 0 177.373c0,11.0291 -9.02245,20.0516 -20.0516,20.0516l-131.622 -0.0011811 -131.626 0c-11.0303,0 -20.0528,-9.02245 -20.0528,-20.0516l0 -177.372 0 -38.6221 0 -38.6611 0 -38.6233 0 -496.353 0 -38.6221 0 -158.306c0,-11.0291 9.02245,-20.0516 20.0528,-20.0516zm-346.403 0l131.627 0 131.622 0c11.0303,0 20.0528,9.02245 20.0528,20.0504l-0.0011811 158.307 0 38.6221 0 496.353 0 38.6233 0 38.6611 0 38.6221 0.0011811 177.373c0,11.0291 -9.02245,20.0516 -20.0528,20.0516l-131.622 -0.0011811 -131.627 0.0011811c-11.028,0 -20.0516,-9.02245 -20.0516,-20.0516l0 -177.373 0 -38.6221 0 -38.6611 0 -38.6233 0 -496.353 0 -38.6221 0 -158.307c0,-11.028 9.02363,-20.0504 20.0516,-20.0504z"/>
   </g>
  </g>
  <path class="fil2" d="M1024 -0.0011811c565.541,0 1024,458.461 1024,1024 0,565.541 -458.461,1024 -1024,1024 -565.541,0 -1024,-458.461 -1024,-1024 0,-565.541 458.461,-1024 1024,-1024z"/>
  <rect class="fil3" x="463.999" y="510.669" width="303.352" height="1026.66" rx="20.0516" ry="20.0516"/>
  <rect class="fil4" x="463.999" y="689.026" width="303.352" height="38.6222"/>
  <rect class="fil4" x="463.999" y="1301.29" width="303.352" height="38.6222"/>
  <rect class="fil4" x="463.999" y="1224" width="303.352" height="38.6222"/>
  <ellipse class="fil5" cx="615.676" cy="927.745" rx="74.8604" ry="74.8603"/>
  <rect class="fil5" x="534.549" y="1024" width="162.252" height="9.93127"/>
  <path class="fil6" d="M484.05 510.669l131.627 0 0 1026.66 -131.627 0c-11.028,0 -20.0516,-9.02245 -20.0516,-20.0504l0 -986.561c0,-11.028 9.02363,-20.0504 20.0516,-20.0504z"/>
  <polygon class="fil7" points="463.999,689.026 615.677,689.026 615.677,727.648 463.999,727.648 "/>
  <polygon class="fil7" points="463.999,1301.29 615.677,1301.29 615.677,1339.91 463.999,1339.91 "/>
  <polygon class="fil7" points="463.999,1224 615.677,1224 615.677,1262.62 463.999,1262.62 "/>
  <path class="fil8" d="M615.676 852.884l0.0011811 0 0 149.721 -0.0011811 0c-41.3445,0 -74.8607,-33.5162 -74.8607,-74.8607 0,-41.3445 33.5162,-74.8607 74.8607,-74.8607z"/>
  <polygon class="fil8" points="534.55,1024 615.677,1024 615.677,1033.93 534.55,1033.93 "/>
  <rect class="fil9" x="810.401" y="510.669" width="303.352" height="1026.66" rx="20.0516" ry="20.0516"/>
  <rect class="fil10" x="810.401" y="689.026" width="303.352" height="38.6222"/>
  <rect class="fil10" x="810.401" y="1301.29" width="303.352" height="38.6222"/>
  <rect class="fil10" x="810.401" y="1224" width="303.352" height="38.6222"/>
  <ellipse class="fil10" cx="962.078" cy="927.745" rx="74.8604" ry="74.8603"/>
  <rect class="fil10" x="880.951" y="1024" width="162.252" height="9.93127"/>
  <path class="fil11" d="M830.454 510.669l131.626 0 0 1026.66 -131.626 0c-11.0303,0 -20.0528,-9.02245 -20.0528,-20.0516l0 -986.559c0,-11.0291 9.02245,-20.0516 20.0528,-20.0516z"/>
  <polygon class="fil12" points="810.401,689.026 962.079,689.026 962.079,727.649 810.401,727.649 "/>
  <polygon class="fil12" points="810.401,1301.29 962.079,1301.29 962.079,1339.91 810.401,1339.91 "/>
  <polygon class="fil12" points="810.401,1224 962.079,1224 962.079,1262.62 810.401,1262.62 "/>
  <path class="fil12" d="M962.077 852.885l0.00236221 0 0 149.72 -0.00236221 0c-41.3433,0 -74.8595,-33.5162 -74.8595,-74.8607 0,-41.3445 33.5162,-74.8595 74.8595,-74.8595z"/>
  <polygon class="fil12" points="880.951,1024 962.079,1024 962.079,1033.93 880.951,1033.93 "/>
  <rect class="fil13" transform="matrix(0.662961 -0.0850991 0.0850992 0.66296 1154.79 534.157)" width="453.847" height="1536" rx="20.0516" ry="20.0516"/>
  <rect class="fil14" transform="matrix(0.662961 -0.0850991 0.0850992 0.66296 1177.5 711.064)" width="453.847" height="57.7831"/>
  <rect class="fil14" transform="matrix(0.662961 -0.0850991 0.0850992 0.66296 1255.45 1318.34)" width="453.847" height="57.7831"/>
  <rect class="fil14" transform="matrix(0.662961 -0.0850991 0.0850992 0.66296 1245.61 1241.68)" width="453.847" height="57.7831"/>
  <circle class="fil14" transform="matrix(0.662961 -0.0850991 0.0850992 0.66296 1358.34 928.528)" r="111.999"/>
  <rect class="fil14" transform="matrix(0.662961 -0.0850991 0.0850992 0.66296 1290.13 1034.32)" width="242.747" height="14.8583"/>
  <path class="fil15" d="M1174.68 531.604l131.104 -16.8295 130.453 1018.34 -130.844 16.7953c-10.9406,1.40315 -21.0378,-6.39686 -22.4421,-17.3362l-125.607 -978.53c-1.40433,-10.9394 6.39567,-21.0378 17.3362,-22.4421z"/>
  <polygon class="fil16" points="1177.5,711.063 1328.45,691.687 1333.36,729.996 1182.42,749.371 "/>
  <polygon class="fil16" points="1255.45,1318.34 1406.25,1298.98 1411.15,1337.29 1260.37,1356.65 "/>
  <polygon class="fil16" points="1245.62,1241.68 1396.43,1222.33 1401.33,1260.64 1250.53,1279.99 "/>
  <path class="fil16" d="M1348.81 854.278l0.466536 -0.0531496 19.0228 148.494 -0.426378 0.0602363c-41.0079,5.26418 -78.5174,-23.7118 -83.7816,-64.7209 -5.26418,-41.0067 23.713,-78.5174 64.7186,-83.7804z"/>
  <polygon class="fil16" points="1290.13,1034.32 1371.01,1023.94 1372.28,1033.79 1291.39,1044.17 "/>
 </g>
</svg>
